<svg xmlns="http://www.w3.org/2000/svg" viewBox="0 0 64 64">
  <rect width="64" height="64" fill="#0d0d0d"/>
  <!-- skull cranium -->
  <path d="M20 18 Q32 8 44 18 L44 34 Q44 40 40 42 L38 46 L36 42 L28 42 L26 46 L24 42 Q20 40 20 34 Z" fill="#e8e8e8"/>
  <!-- left eye socket -->
  <ellipse cx="25" cy="28" rx="5" ry="6" fill="#0d0d0d"/>
  <!-- right eye socket -->
  <ellipse cx="39" cy="28" rx="5" ry="6" fill="#0d0d0d"/>
  <!-- nose -->
  <rect x="30" y="34" width="4" height="5" fill="#0d0d0d"/>
  <!-- teeth gaps -->
  <rect x="27" y="42" width="2" height="4" fill="#0d0d0d"/>
  <rect x="31" y="42" width="2" height="4" fill="#0d0d0d"/>
  <rect x="35" y="42" width="2" height="4" fill="#0d0d0d"/>
  <!-- fracture crack -->
  <path d="M32 10 L30 18 L33 24 L29 30 L32 36" stroke="#666" stroke-width="1" fill="none"/>
</svg>